# xmcd
#
# Track frame offsets:
#	150
#	20157
#	48902
#	64682
#	78276
#	91136
#	110771
#	126395
#	138504
#	153881
#	166064
#	183054
#
# Disc length: 2651 seconds
#
# Revision: 0
# Processed by: cddbd v1.5.2PL0 Copyright (c) Steve Scherf et al.
# Submitted via: EZCDAudioConverter 3.1.0.1
#
DISCID=940a590c
DTITLE=Joramlee - Nägarmuseg
DYEAR=2015
DGENRE=
TTITLE0=Bier us
TTITLE1=Tante Cilly
TTITLE2=Falsche Prise Blues
TTITLE3=i kenn se all
TTITLE4=Isa Müettr
TTITLE5=Glick
TTITLE6=Zitting sing
TTITLE7=Aftermädag
TTITLE8=Wachs diene Schi!
TTITLE9=Narred güet
TTITLE10=Schiene Liech
TTITLE11=Verheberverein
EXTD=
EXTT0=
EXTT1=
EXTT2=
EXTT3=
EXTT4=
EXTT5=
EXTT6=
EXTT7=
EXTT8=
EXTT9=
EXTT10=
EXTT11=
PLAYORDER=
